<svg width="104" height="16" viewBox="0 0 104 16" fill="none" xmlns="http://www.w3.org/2000/svg">
<path d="M0 11.651V10.511H3.994V11.961C3.99091 12.1515 4.02866 12.3405 4.10471 12.5152C4.18077 12.6898 4.29336 12.8462 4.43491 12.9737C4.57647 13.1013 4.74369 13.197 4.92534 13.2545C5.10699 13.312 5.29885 13.3299 5.488 13.307C5.81112 13.3508 6.13892 13.2716 6.40639 13.0851C6.67386 12.8986 6.86147 12.6184 6.932 12.3C7.03893 11.9353 7.02985 11.5463 6.906 11.187C6.133 9.243 0.851 8.363 0.18 5.333C0.0433906 4.66737 0.0349058 3.98181 0.155 3.313C0.567 0.88 2.705 0 5.359 0C7.472 0 10.384 0.492 10.384 3.754V4.816H6.674V3.884C6.6852 3.7003 6.6565 3.51635 6.58987 3.34479C6.52324 3.17323 6.42025 3.01813 6.28799 2.89015C6.15573 2.76217 5.99734 2.66434 5.82368 2.60337C5.65003 2.54241 5.46524 2.51977 5.282 2.537C4.9691 2.50255 4.65473 2.58742 4.40168 2.77465C4.14864 2.96189 3.97555 3.23771 3.917 3.547C3.8753 3.80524 3.88413 4.06912 3.943 4.324C4.38 6.058 10.024 6.991 10.643 10.124C10.7977 10.936 10.8062 11.769 10.668 12.584C10.307 15.068 8.091 16 5.412 16C2.6 16 0 14.99 0 11.651ZM48.392 11.6V10.46H52.335V11.884C52.3288 12.0728 52.3634 12.2607 52.4366 12.4349C52.5097 12.609 52.6195 12.7654 52.7586 12.8932C52.8977 13.021 53.0628 13.1172 53.2425 13.1754C53.4222 13.2335 53.6124 13.2521 53.8 13.23C54.1202 13.2777 54.4467 13.2029 54.7142 13.0205C54.9817 12.8381 55.1705 12.5615 55.243 12.246C55.3499 11.8898 55.3411 11.5089 55.218 11.158C54.47 9.243 49.239 8.358 48.57 5.333C48.4331 4.67619 48.4243 3.99915 48.544 3.339C48.959 0.932 51.1 0.052 53.7 0.052C55.788 0.052 58.673 0.57 58.673 3.78V4.816H54.989V3.91C55.0007 3.72856 54.9733 3.54671 54.9086 3.3768C54.8439 3.20688 54.7434 3.05287 54.614 2.92521C54.4845 2.79754 54.3291 2.69922 54.1583 2.63689C53.9875 2.57457 53.8053 2.54971 53.624 2.564C53.3168 2.52327 53.0058 2.60295 52.756 2.78636C52.5062 2.96977 52.3371 3.2427 52.284 3.548C52.2419 3.80617 52.2504 4.07007 52.309 4.325C52.721 6.059 58.309 6.966 58.932 10.072C59.0865 10.8752 59.095 11.6998 58.957 12.506C58.596 14.992 56.406 15.898 53.757 15.898C50.97 15.9 48.392 14.887 48.392 11.6ZM62.513 12.145C62.4771 11.8179 62.4687 11.4885 62.488 11.16V0.44H66.25V11.495C66.2451 11.6853 66.2535 11.8758 66.275 12.065C66.3589 12.3767 66.5433 12.6521 66.7996 12.8485C67.0558 13.0448 67.3697 13.1513 67.6925 13.1513C68.0153 13.1513 68.3292 13.0448 68.5854 12.8485C68.8417 12.6521 69.0261 12.3767 69.11 12.065C69.1323 11.8759 69.141 11.6854 69.136 11.495V0.44H72.9V11.158C72.9 11.443 72.874 11.987 72.874 12.143C72.617 14.943 70.426 15.843 67.695 15.843C64.964 15.843 62.771 14.938 62.513 12.143V12.145ZM93.487 11.989C93.4488 11.6608 93.4314 11.3304 93.435 11V4.712C93.435 4.453 93.46 3.987 93.486 3.727C93.821 0.932 96.063 0.052 98.717 0.052C101.346 0.052 103.664 0.932 103.923 3.728C103.954 4.05537 103.962 4.38448 103.948 4.713V5.2H100.186V4.376C100.187 4.18483 100.17 3.99402 100.135 3.806C100.036 3.49035 99.8391 3.2145 99.5725 3.01866C99.3059 2.82282 98.9838 2.7172 98.653 2.7172C98.3222 2.7172 98.0001 2.82282 97.7335 3.01866C97.4669 3.2145 97.2699 3.49035 97.171 3.806C97.1274 4.03664 97.1103 4.27149 97.12 4.506V11.34C97.1156 11.5304 97.1243 11.7208 97.146 11.91C97.2352 12.249 97.4424 12.545 97.7304 12.7448C98.0184 12.9446 98.3682 13.0351 98.717 13C99.0595 13.0365 99.4035 12.9459 99.6837 12.7456C99.9639 12.5452 100.161 12.2489 100.237 11.913C100.272 11.7251 100.28 11.5333 100.263 11.343V9.165H98.743V6.99H104V11C104.004 11.3288 103.986 11.6575 103.948 11.984C103.691 14.702 101.348 15.66 98.717 15.66C96.086 15.66 93.744 14.705 93.487 11.987V11.989ZM41.049 15.378L40.949 1.553L38.369 15.378H34.607L32.055 1.553L31.955 15.378H28.242L28.551 0.466H34.607L36.488 12.117L38.369 0.466H44.424L44.759 15.378H41.049ZM21.259 15.378L19.249 1.553L17.187 15.378H13.168L15.9 0.466H22.523L25.255 15.378H21.259ZM84.236 15.223L80.5 2.822L80.706 15.222H77.046V0.466H82.56L86.06 12.479L85.859 0.466H89.544V15.224L84.236 15.223Z" fill="black"/>
</svg>
